<mxfile host="app.diagrams.net" modified="2020-11-18T03:48:37.870Z" agent="5.0 (Windows NT 10.0; Win64; x64) AppleWebKit/537.36 (KHTML, like Gecko) Chrome/86.0.4240.198 Safari/537.36" etag="yQ1QRIclNeK_xO1p5-99" version="13.9.9" type="github">
  <diagram id="lCH3l3sZAvIwr4fx6T6T" name="Page-1">
    <mxGraphModel dx="1422" dy="839" grid="0" gridSize="10" guides="1" tooltips="1" connect="1" arrows="1" fold="1" page="1" pageScale="1" pageWidth="1654" pageHeight="2336" math="0" shadow="0">
      <root>
        <mxCell id="0" />
        <mxCell id="1" parent="0" />
        <mxCell id="pgZDr6GOO8oYsuXbYnGg-4" value="" style="edgeStyle=orthogonalEdgeStyle;rounded=0;orthogonalLoop=1;jettySize=auto;html=1;" edge="1" parent="1" source="pgZDr6GOO8oYsuXbYnGg-1" target="pgZDr6GOO8oYsuXbYnGg-3">
          <mxGeometry relative="1" as="geometry" />
        </mxCell>
        <mxCell id="pgZDr6GOO8oYsuXbYnGg-1" value="取Redis数据" style="rounded=0;whiteSpace=wrap;html=1;" vertex="1" parent="1">
          <mxGeometry x="120" y="327.5" width="120" height="50" as="geometry" />
        </mxCell>
        <mxCell id="pgZDr6GOO8oYsuXbYnGg-6" value="" style="edgeStyle=orthogonalEdgeStyle;rounded=0;orthogonalLoop=1;jettySize=auto;html=1;" edge="1" parent="1" source="pgZDr6GOO8oYsuXbYnGg-2" target="pgZDr6GOO8oYsuXbYnGg-5">
          <mxGeometry relative="1" as="geometry" />
        </mxCell>
        <mxCell id="pgZDr6GOO8oYsuXbYnGg-2" value="取多租赁数据" style="rounded=0;whiteSpace=wrap;html=1;" vertex="1" parent="1">
          <mxGeometry x="410" y="327.5" width="120" height="50" as="geometry" />
        </mxCell>
        <mxCell id="pgZDr6GOO8oYsuXbYnGg-7" value="否" style="edgeStyle=orthogonalEdgeStyle;rounded=0;orthogonalLoop=1;jettySize=auto;html=1;" edge="1" parent="1" source="pgZDr6GOO8oYsuXbYnGg-3" target="pgZDr6GOO8oYsuXbYnGg-2">
          <mxGeometry relative="1" as="geometry" />
        </mxCell>
        <mxCell id="pgZDr6GOO8oYsuXbYnGg-21" value="存在" style="edgeStyle=orthogonalEdgeStyle;rounded=0;orthogonalLoop=1;jettySize=auto;html=1;exitX=0.5;exitY=1;exitDx=0;exitDy=0;entryX=0.5;entryY=1;entryDx=0;entryDy=0;" edge="1" parent="1" source="pgZDr6GOO8oYsuXbYnGg-3" target="pgZDr6GOO8oYsuXbYnGg-11">
          <mxGeometry relative="1" as="geometry">
            <Array as="points">
              <mxPoint x="320" y="420" />
              <mxPoint x="1060" y="420" />
            </Array>
          </mxGeometry>
        </mxCell>
        <mxCell id="pgZDr6GOO8oYsuXbYnGg-3" value="存在" style="rhombus;whiteSpace=wrap;html=1;" vertex="1" parent="1">
          <mxGeometry x="280" y="325" width="80" height="55" as="geometry" />
        </mxCell>
        <mxCell id="pgZDr6GOO8oYsuXbYnGg-19" value="" style="edgeStyle=orthogonalEdgeStyle;rounded=0;orthogonalLoop=1;jettySize=auto;html=1;" edge="1" parent="1" source="pgZDr6GOO8oYsuXbYnGg-5" target="pgZDr6GOO8oYsuXbYnGg-8">
          <mxGeometry relative="1" as="geometry" />
        </mxCell>
        <mxCell id="pgZDr6GOO8oYsuXbYnGg-20" value="不存在" style="edgeStyle=orthogonalEdgeStyle;rounded=0;orthogonalLoop=1;jettySize=auto;html=1;exitX=0.5;exitY=0;exitDx=0;exitDy=0;entryX=0;entryY=0.5;entryDx=0;entryDy=0;" edge="1" parent="1" source="pgZDr6GOO8oYsuXbYnGg-5" target="pgZDr6GOO8oYsuXbYnGg-15">
          <mxGeometry relative="1" as="geometry" />
        </mxCell>
        <mxCell id="pgZDr6GOO8oYsuXbYnGg-5" value="存在" style="rhombus;whiteSpace=wrap;html=1;" vertex="1" parent="1">
          <mxGeometry x="570" y="325" width="80" height="55" as="geometry" />
        </mxCell>
        <mxCell id="pgZDr6GOO8oYsuXbYnGg-18" value="" style="edgeStyle=orthogonalEdgeStyle;rounded=0;orthogonalLoop=1;jettySize=auto;html=1;" edge="1" parent="1" source="pgZDr6GOO8oYsuXbYnGg-8" target="pgZDr6GOO8oYsuXbYnGg-9">
          <mxGeometry relative="1" as="geometry" />
        </mxCell>
        <mxCell id="pgZDr6GOO8oYsuXbYnGg-8" value="写入Redis" style="rounded=0;whiteSpace=wrap;html=1;" vertex="1" parent="1">
          <mxGeometry x="690" y="327.5" width="120" height="50" as="geometry" />
        </mxCell>
        <mxCell id="pgZDr6GOO8oYsuXbYnGg-14" value="" style="edgeStyle=orthogonalEdgeStyle;rounded=0;orthogonalLoop=1;jettySize=auto;html=1;" edge="1" parent="1" source="pgZDr6GOO8oYsuXbYnGg-9" target="pgZDr6GOO8oYsuXbYnGg-11">
          <mxGeometry relative="1" as="geometry" />
        </mxCell>
        <mxCell id="pgZDr6GOO8oYsuXbYnGg-9" value="反序列化" style="rounded=0;whiteSpace=wrap;html=1;" vertex="1" parent="1">
          <mxGeometry x="840" y="327.5" width="120" height="50" as="geometry" />
        </mxCell>
        <mxCell id="pgZDr6GOO8oYsuXbYnGg-13" value="" style="edgeStyle=orthogonalEdgeStyle;rounded=0;orthogonalLoop=1;jettySize=auto;html=1;" edge="1" parent="1" source="pgZDr6GOO8oYsuXbYnGg-11" target="pgZDr6GOO8oYsuXbYnGg-12">
          <mxGeometry relative="1" as="geometry" />
        </mxCell>
        <mxCell id="pgZDr6GOO8oYsuXbYnGg-11" value="返回结果" style="rounded=0;whiteSpace=wrap;html=1;" vertex="1" parent="1">
          <mxGeometry x="1000" y="327.5" width="120" height="50" as="geometry" />
        </mxCell>
        <mxCell id="pgZDr6GOO8oYsuXbYnGg-12" value="" style="ellipse;html=1;shape=endState;fillColor=#000000;strokeColor=#000000;" vertex="1" parent="1">
          <mxGeometry x="1170" y="338" width="30" height="30" as="geometry" />
        </mxCell>
        <mxCell id="pgZDr6GOO8oYsuXbYnGg-16" style="edgeStyle=orthogonalEdgeStyle;rounded=0;orthogonalLoop=1;jettySize=auto;html=1;exitX=1;exitY=0.5;exitDx=0;exitDy=0;" edge="1" parent="1" source="pgZDr6GOO8oYsuXbYnGg-15" target="pgZDr6GOO8oYsuXbYnGg-12">
          <mxGeometry relative="1" as="geometry" />
        </mxCell>
        <mxCell id="pgZDr6GOO8oYsuXbYnGg-15" value="返回默认值" style="rounded=0;whiteSpace=wrap;html=1;" vertex="1" parent="1">
          <mxGeometry x="1000" y="250" width="120" height="50" as="geometry" />
        </mxCell>
        <mxCell id="pgZDr6GOO8oYsuXbYnGg-23" value="" style="edgeStyle=orthogonalEdgeStyle;rounded=0;orthogonalLoop=1;jettySize=auto;html=1;" edge="1" parent="1" source="pgZDr6GOO8oYsuXbYnGg-22" target="pgZDr6GOO8oYsuXbYnGg-1">
          <mxGeometry relative="1" as="geometry" />
        </mxCell>
        <mxCell id="pgZDr6GOO8oYsuXbYnGg-22" value="" style="ellipse;fillColor=#000000;strokeColor=none;" vertex="1" parent="1">
          <mxGeometry x="60" y="337.5" width="30" height="30" as="geometry" />
        </mxCell>
        <mxCell id="pgZDr6GOO8oYsuXbYnGg-72" value="" style="edgeStyle=orthogonalEdgeStyle;rounded=0;orthogonalLoop=1;jettySize=auto;html=1;" edge="1" parent="1" source="pgZDr6GOO8oYsuXbYnGg-47" target="pgZDr6GOO8oYsuXbYnGg-71">
          <mxGeometry relative="1" as="geometry" />
        </mxCell>
        <mxCell id="pgZDr6GOO8oYsuXbYnGg-47" value="取Redis数据" style="rounded=0;whiteSpace=wrap;html=1;" vertex="1" parent="1">
          <mxGeometry x="120" y="597.5" width="90" height="42.5" as="geometry" />
        </mxCell>
        <mxCell id="pgZDr6GOO8oYsuXbYnGg-66" value="" style="edgeStyle=orthogonalEdgeStyle;rounded=0;orthogonalLoop=1;jettySize=auto;html=1;" edge="1" parent="1" source="pgZDr6GOO8oYsuXbYnGg-67" target="pgZDr6GOO8oYsuXbYnGg-47">
          <mxGeometry relative="1" as="geometry" />
        </mxCell>
        <mxCell id="pgZDr6GOO8oYsuXbYnGg-67" value="" style="ellipse;fillColor=#000000;strokeColor=none;" vertex="1" parent="1">
          <mxGeometry x="60" y="603.75" width="30" height="30" as="geometry" />
        </mxCell>
        <mxCell id="pgZDr6GOO8oYsuXbYnGg-74" value="不存在" style="edgeStyle=orthogonalEdgeStyle;rounded=0;orthogonalLoop=1;jettySize=auto;html=1;" edge="1" parent="1" source="pgZDr6GOO8oYsuXbYnGg-71" target="pgZDr6GOO8oYsuXbYnGg-73">
          <mxGeometry relative="1" as="geometry" />
        </mxCell>
        <mxCell id="pgZDr6GOO8oYsuXbYnGg-90" value="存在" style="edgeStyle=orthogonalEdgeStyle;rounded=0;orthogonalLoop=1;jettySize=auto;html=1;exitX=0.5;exitY=0;exitDx=0;exitDy=0;entryX=0;entryY=0.5;entryDx=0;entryDy=0;" edge="1" parent="1" source="pgZDr6GOO8oYsuXbYnGg-71" target="pgZDr6GOO8oYsuXbYnGg-89">
          <mxGeometry relative="1" as="geometry" />
        </mxCell>
        <mxCell id="pgZDr6GOO8oYsuXbYnGg-71" value="存在" style="rhombus;whiteSpace=wrap;html=1;" vertex="1" parent="1">
          <mxGeometry x="250" y="599.38" width="60" height="38.75" as="geometry" />
        </mxCell>
        <mxCell id="pgZDr6GOO8oYsuXbYnGg-76" value="" style="edgeStyle=orthogonalEdgeStyle;rounded=0;orthogonalLoop=1;jettySize=auto;html=1;" edge="1" parent="1" source="pgZDr6GOO8oYsuXbYnGg-73" target="pgZDr6GOO8oYsuXbYnGg-75">
          <mxGeometry relative="1" as="geometry" />
        </mxCell>
        <mxCell id="pgZDr6GOO8oYsuXbYnGg-73" value="取多租赁" style="rounded=0;whiteSpace=wrap;html=1;" vertex="1" parent="1">
          <mxGeometry x="360" y="597.5" width="90" height="42.5" as="geometry" />
        </mxCell>
        <mxCell id="pgZDr6GOO8oYsuXbYnGg-79" value="" style="edgeStyle=orthogonalEdgeStyle;rounded=0;orthogonalLoop=1;jettySize=auto;html=1;" edge="1" parent="1" source="pgZDr6GOO8oYsuXbYnGg-75" target="pgZDr6GOO8oYsuXbYnGg-78">
          <mxGeometry relative="1" as="geometry" />
        </mxCell>
        <mxCell id="pgZDr6GOO8oYsuXbYnGg-75" value="写Redis" style="rounded=0;whiteSpace=wrap;html=1;fillColor=#ffe6cc;strokeColor=#d79b00;" vertex="1" parent="1">
          <mxGeometry x="480" y="597.5" width="90" height="42.5" as="geometry" />
        </mxCell>
        <mxCell id="pgZDr6GOO8oYsuXbYnGg-82" value="是" style="edgeStyle=orthogonalEdgeStyle;rounded=0;orthogonalLoop=1;jettySize=auto;html=1;" edge="1" parent="1" source="pgZDr6GOO8oYsuXbYnGg-78" target="pgZDr6GOO8oYsuXbYnGg-81">
          <mxGeometry relative="1" as="geometry" />
        </mxCell>
        <mxCell id="pgZDr6GOO8oYsuXbYnGg-103" value="不存在 或者 为空" style="edgeStyle=orthogonalEdgeStyle;rounded=0;orthogonalLoop=1;jettySize=auto;html=1;exitX=0.5;exitY=1;exitDx=0;exitDy=0;entryX=0;entryY=0.5;entryDx=0;entryDy=0;" edge="1" parent="1" source="pgZDr6GOO8oYsuXbYnGg-78" target="pgZDr6GOO8oYsuXbYnGg-102">
          <mxGeometry relative="1" as="geometry" />
        </mxCell>
        <mxCell id="pgZDr6GOO8oYsuXbYnGg-78" value="存在 且&lt;br&gt;不为空" style="rhombus;whiteSpace=wrap;html=1;" vertex="1" parent="1">
          <mxGeometry x="610" y="592.5" width="70" height="52.5" as="geometry" />
        </mxCell>
        <mxCell id="pgZDr6GOO8oYsuXbYnGg-85" value="V2" style="edgeStyle=orthogonalEdgeStyle;rounded=0;orthogonalLoop=1;jettySize=auto;html=1;" edge="1" parent="1" source="pgZDr6GOO8oYsuXbYnGg-81" target="pgZDr6GOO8oYsuXbYnGg-83">
          <mxGeometry relative="1" as="geometry" />
        </mxCell>
        <mxCell id="pgZDr6GOO8oYsuXbYnGg-96" value="V1" style="edgeStyle=orthogonalEdgeStyle;rounded=0;orthogonalLoop=1;jettySize=auto;html=1;exitX=0.5;exitY=1;exitDx=0;exitDy=0;entryX=0;entryY=0.5;entryDx=0;entryDy=0;" edge="1" parent="1" source="pgZDr6GOO8oYsuXbYnGg-81" target="pgZDr6GOO8oYsuXbYnGg-95">
          <mxGeometry relative="1" as="geometry" />
        </mxCell>
        <mxCell id="pgZDr6GOO8oYsuXbYnGg-81" value="判断版本" style="rhombus;whiteSpace=wrap;html=1;fillColor=#d5e8d4;strokeColor=#82b366;" vertex="1" parent="1">
          <mxGeometry x="720" y="592.5" width="70" height="52.5" as="geometry" />
        </mxCell>
        <mxCell id="pgZDr6GOO8oYsuXbYnGg-86" value="" style="edgeStyle=orthogonalEdgeStyle;rounded=0;orthogonalLoop=1;jettySize=auto;html=1;" edge="1" parent="1" source="pgZDr6GOO8oYsuXbYnGg-83" target="pgZDr6GOO8oYsuXbYnGg-84">
          <mxGeometry relative="1" as="geometry" />
        </mxCell>
        <mxCell id="pgZDr6GOO8oYsuXbYnGg-83" value="V2 反序列化" style="rounded=0;whiteSpace=wrap;html=1;fillColor=#d5e8d4;strokeColor=#82b366;" vertex="1" parent="1">
          <mxGeometry x="870" y="597.51" width="90" height="42.5" as="geometry" />
        </mxCell>
        <mxCell id="pgZDr6GOO8oYsuXbYnGg-88" value="" style="edgeStyle=orthogonalEdgeStyle;rounded=0;orthogonalLoop=1;jettySize=auto;html=1;" edge="1" parent="1" source="pgZDr6GOO8oYsuXbYnGg-84" target="pgZDr6GOO8oYsuXbYnGg-87">
          <mxGeometry relative="1" as="geometry" />
        </mxCell>
        <mxCell id="pgZDr6GOO8oYsuXbYnGg-84" value="返回结果" style="rounded=0;whiteSpace=wrap;html=1;" vertex="1" parent="1">
          <mxGeometry x="1040" y="597.5" width="90" height="42.5" as="geometry" />
        </mxCell>
        <mxCell id="pgZDr6GOO8oYsuXbYnGg-87" value="" style="ellipse;html=1;shape=endState;fillColor=#000000;strokeColor=#000000;" vertex="1" parent="1">
          <mxGeometry x="1210" y="603.76" width="30" height="30" as="geometry" />
        </mxCell>
        <mxCell id="pgZDr6GOO8oYsuXbYnGg-92" value="空字符串" style="edgeStyle=orthogonalEdgeStyle;rounded=0;orthogonalLoop=1;jettySize=auto;html=1;exitX=1;exitY=0.5;exitDx=0;exitDy=0;" edge="1" parent="1" source="pgZDr6GOO8oYsuXbYnGg-89" target="pgZDr6GOO8oYsuXbYnGg-91">
          <mxGeometry relative="1" as="geometry" />
        </mxCell>
        <mxCell id="pgZDr6GOO8oYsuXbYnGg-94" value="不为空" style="edgeStyle=orthogonalEdgeStyle;rounded=0;orthogonalLoop=1;jettySize=auto;html=1;exitX=0.5;exitY=1;exitDx=0;exitDy=0;entryX=0.5;entryY=0;entryDx=0;entryDy=0;" edge="1" parent="1" source="pgZDr6GOO8oYsuXbYnGg-89" target="pgZDr6GOO8oYsuXbYnGg-81">
          <mxGeometry relative="1" as="geometry" />
        </mxCell>
        <mxCell id="pgZDr6GOO8oYsuXbYnGg-89" value="空" style="rhombus;whiteSpace=wrap;html=1;" vertex="1" parent="1">
          <mxGeometry x="360" y="491.88" width="60" height="38.75" as="geometry" />
        </mxCell>
        <mxCell id="pgZDr6GOO8oYsuXbYnGg-93" style="edgeStyle=orthogonalEdgeStyle;rounded=0;orthogonalLoop=1;jettySize=auto;html=1;exitX=1;exitY=0.5;exitDx=0;exitDy=0;" edge="1" parent="1" source="pgZDr6GOO8oYsuXbYnGg-91" target="pgZDr6GOO8oYsuXbYnGg-87">
          <mxGeometry relative="1" as="geometry" />
        </mxCell>
        <mxCell id="pgZDr6GOO8oYsuXbYnGg-91" value="返回默认值" style="rounded=0;whiteSpace=wrap;html=1;" vertex="1" parent="1">
          <mxGeometry x="1050" y="490" width="90" height="42.5" as="geometry" />
        </mxCell>
        <mxCell id="pgZDr6GOO8oYsuXbYnGg-98" value="" style="edgeStyle=orthogonalEdgeStyle;rounded=0;orthogonalLoop=1;jettySize=auto;html=1;" edge="1" parent="1" source="pgZDr6GOO8oYsuXbYnGg-95" target="pgZDr6GOO8oYsuXbYnGg-97">
          <mxGeometry relative="1" as="geometry" />
        </mxCell>
        <mxCell id="pgZDr6GOO8oYsuXbYnGg-95" value="V1 反序列化" style="rounded=0;whiteSpace=wrap;html=1;fillColor=#d5e8d4;strokeColor=#82b366;" vertex="1" parent="1">
          <mxGeometry x="827" y="670" width="90" height="42.5" as="geometry" />
        </mxCell>
        <mxCell id="pgZDr6GOO8oYsuXbYnGg-99" style="edgeStyle=orthogonalEdgeStyle;rounded=0;orthogonalLoop=1;jettySize=auto;html=1;exitX=1;exitY=0.5;exitDx=0;exitDy=0;" edge="1" parent="1" source="pgZDr6GOO8oYsuXbYnGg-97" target="pgZDr6GOO8oYsuXbYnGg-84">
          <mxGeometry relative="1" as="geometry" />
        </mxCell>
        <mxCell id="pgZDr6GOO8oYsuXbYnGg-97" value="V1 转 V2" style="rounded=0;whiteSpace=wrap;html=1;fillColor=#d5e8d4;strokeColor=#82b366;" vertex="1" parent="1">
          <mxGeometry x="970" y="670" width="90" height="42.5" as="geometry" />
        </mxCell>
        <mxCell id="pgZDr6GOO8oYsuXbYnGg-104" style="edgeStyle=orthogonalEdgeStyle;rounded=0;orthogonalLoop=1;jettySize=auto;html=1;exitX=1;exitY=0.5;exitDx=0;exitDy=0;entryX=0.5;entryY=1;entryDx=0;entryDy=0;" edge="1" parent="1" source="pgZDr6GOO8oYsuXbYnGg-102" target="pgZDr6GOO8oYsuXbYnGg-87">
          <mxGeometry relative="1" as="geometry" />
        </mxCell>
        <mxCell id="pgZDr6GOO8oYsuXbYnGg-102" value="返回默认值" style="rounded=0;whiteSpace=wrap;html=1;" vertex="1" parent="1">
          <mxGeometry x="1050" y="740" width="90" height="42.5" as="geometry" />
        </mxCell>
        <mxCell id="pgZDr6GOO8oYsuXbYnGg-109" value="" style="edgeStyle=orthogonalEdgeStyle;rounded=0;orthogonalLoop=1;jettySize=auto;html=1;" edge="1" parent="1" source="pgZDr6GOO8oYsuXbYnGg-107" target="pgZDr6GOO8oYsuXbYnGg-108">
          <mxGeometry relative="1" as="geometry" />
        </mxCell>
        <mxCell id="pgZDr6GOO8oYsuXbYnGg-107" value="" style="ellipse;fillColor=#000000;strokeColor=none;" vertex="1" parent="1">
          <mxGeometry x="60" y="860" width="30" height="30" as="geometry" />
        </mxCell>
        <mxCell id="pgZDr6GOO8oYsuXbYnGg-113" value="" style="edgeStyle=orthogonalEdgeStyle;rounded=0;orthogonalLoop=1;jettySize=auto;html=1;" edge="1" parent="1" source="pgZDr6GOO8oYsuXbYnGg-108" target="pgZDr6GOO8oYsuXbYnGg-110">
          <mxGeometry relative="1" as="geometry" />
        </mxCell>
        <mxCell id="pgZDr6GOO8oYsuXbYnGg-108" value="取多租赁数据" style="rounded=0;whiteSpace=wrap;html=1;" vertex="1" parent="1">
          <mxGeometry x="130" y="853.75" width="90" height="42.5" as="geometry" />
        </mxCell>
        <mxCell id="pgZDr6GOO8oYsuXbYnGg-114" value="" style="edgeStyle=orthogonalEdgeStyle;rounded=0;orthogonalLoop=1;jettySize=auto;html=1;" edge="1" parent="1" source="pgZDr6GOO8oYsuXbYnGg-110" target="pgZDr6GOO8oYsuXbYnGg-111">
          <mxGeometry relative="1" as="geometry" />
        </mxCell>
        <mxCell id="pgZDr6GOO8oYsuXbYnGg-110" value="写入Redis" style="rounded=0;whiteSpace=wrap;html=1;fillColor=#f8cecc;strokeColor=#b85450;" vertex="1" parent="1">
          <mxGeometry x="250" y="853.75" width="90" height="42.5" as="geometry" />
        </mxCell>
        <mxCell id="pgZDr6GOO8oYsuXbYnGg-115" value="" style="edgeStyle=orthogonalEdgeStyle;rounded=0;orthogonalLoop=1;jettySize=auto;html=1;" edge="1" parent="1" source="pgZDr6GOO8oYsuXbYnGg-111" target="pgZDr6GOO8oYsuXbYnGg-112">
          <mxGeometry relative="1" as="geometry" />
        </mxCell>
        <mxCell id="pgZDr6GOO8oYsuXbYnGg-111" value="反序列化" style="rounded=0;whiteSpace=wrap;html=1;" vertex="1" parent="1">
          <mxGeometry x="370" y="853.75" width="90" height="42.5" as="geometry" />
        </mxCell>
        <mxCell id="pgZDr6GOO8oYsuXbYnGg-118" value="不存在" style="edgeStyle=orthogonalEdgeStyle;rounded=0;orthogonalLoop=1;jettySize=auto;html=1;exitX=0.5;exitY=1;exitDx=0;exitDy=0;entryX=0;entryY=0.5;entryDx=0;entryDy=0;" edge="1" parent="1" source="pgZDr6GOO8oYsuXbYnGg-112" target="pgZDr6GOO8oYsuXbYnGg-117">
          <mxGeometry relative="1" as="geometry" />
        </mxCell>
        <mxCell id="pgZDr6GOO8oYsuXbYnGg-120" value="存在" style="edgeStyle=orthogonalEdgeStyle;rounded=0;orthogonalLoop=1;jettySize=auto;html=1;" edge="1" parent="1" source="pgZDr6GOO8oYsuXbYnGg-112" target="pgZDr6GOO8oYsuXbYnGg-119">
          <mxGeometry relative="1" as="geometry" />
        </mxCell>
        <mxCell id="pgZDr6GOO8oYsuXbYnGg-112" value="存在" style="rhombus;whiteSpace=wrap;html=1;" vertex="1" parent="1">
          <mxGeometry x="500" y="855.6250000000001" width="60" height="38.75" as="geometry" />
        </mxCell>
        <mxCell id="pgZDr6GOO8oYsuXbYnGg-127" style="edgeStyle=orthogonalEdgeStyle;rounded=0;orthogonalLoop=1;jettySize=auto;html=1;exitX=1;exitY=0.5;exitDx=0;exitDy=0;" edge="1" parent="1" source="pgZDr6GOO8oYsuXbYnGg-117" target="pgZDr6GOO8oYsuXbYnGg-121">
          <mxGeometry relative="1" as="geometry" />
        </mxCell>
        <mxCell id="pgZDr6GOO8oYsuXbYnGg-117" value="创建 &lt;br&gt;新配置记录" style="rounded=0;whiteSpace=wrap;html=1;" vertex="1" parent="1">
          <mxGeometry x="610" y="910" width="90" height="42.5" as="geometry" />
        </mxCell>
        <mxCell id="pgZDr6GOO8oYsuXbYnGg-129" value="" style="edgeStyle=orthogonalEdgeStyle;rounded=0;orthogonalLoop=1;jettySize=auto;html=1;" edge="1" parent="1" source="pgZDr6GOO8oYsuXbYnGg-119" target="pgZDr6GOO8oYsuXbYnGg-128">
          <mxGeometry relative="1" as="geometry" />
        </mxCell>
        <mxCell id="pgZDr6GOO8oYsuXbYnGg-119" value="更新为&lt;br&gt;新配置" style="rounded=0;whiteSpace=wrap;html=1;" vertex="1" parent="1">
          <mxGeometry x="610" y="853.75" width="90" height="42.5" as="geometry" />
        </mxCell>
        <mxCell id="pgZDr6GOO8oYsuXbYnGg-125" value="" style="edgeStyle=orthogonalEdgeStyle;rounded=0;orthogonalLoop=1;jettySize=auto;html=1;" edge="1" parent="1" source="pgZDr6GOO8oYsuXbYnGg-121" target="pgZDr6GOO8oYsuXbYnGg-123">
          <mxGeometry relative="1" as="geometry" />
        </mxCell>
        <mxCell id="pgZDr6GOO8oYsuXbYnGg-121" value="写入操作日志" style="rounded=0;whiteSpace=wrap;html=1;" vertex="1" parent="1">
          <mxGeometry x="880" y="853.75" width="90" height="42.5" as="geometry" />
        </mxCell>
        <mxCell id="pgZDr6GOO8oYsuXbYnGg-126" value="" style="edgeStyle=orthogonalEdgeStyle;rounded=0;orthogonalLoop=1;jettySize=auto;html=1;" edge="1" parent="1" source="pgZDr6GOO8oYsuXbYnGg-123" target="pgZDr6GOO8oYsuXbYnGg-124">
          <mxGeometry relative="1" as="geometry" />
        </mxCell>
        <mxCell id="pgZDr6GOO8oYsuXbYnGg-123" value="清缓存" style="rounded=0;whiteSpace=wrap;html=1;" vertex="1" parent="1">
          <mxGeometry x="1020" y="853.75" width="90" height="42.5" as="geometry" />
        </mxCell>
        <mxCell id="pgZDr6GOO8oYsuXbYnGg-124" value="" style="ellipse;html=1;shape=endState;fillColor=#000000;strokeColor=#000000;" vertex="1" parent="1">
          <mxGeometry x="1170" y="859.9999999999999" width="30" height="30" as="geometry" />
        </mxCell>
        <mxCell id="pgZDr6GOO8oYsuXbYnGg-130" value="" style="edgeStyle=orthogonalEdgeStyle;rounded=0;orthogonalLoop=1;jettySize=auto;html=1;" edge="1" parent="1" source="pgZDr6GOO8oYsuXbYnGg-128" target="pgZDr6GOO8oYsuXbYnGg-121">
          <mxGeometry relative="1" as="geometry" />
        </mxCell>
        <mxCell id="pgZDr6GOO8oYsuXbYnGg-128" value="老配置V1转V2" style="rounded=0;whiteSpace=wrap;html=1;fillColor=#d5e8d4;strokeColor=#82b366;" vertex="1" parent="1">
          <mxGeometry x="750" y="853.7499999999999" width="90" height="42.5" as="geometry" />
        </mxCell>
      </root>
    </mxGraphModel>
  </diagram>
</mxfile>
